<svg width="16" height="16" viewBox="0 0 16 16" fill="none" xmlns="http://www.w3.org/2000/svg">
<g clip-path="url(#clip0_3_2)">
<path d="M11.742 10.344C12.7103 9.02269 13.144 7.38449 12.9563 5.75715C12.7686 4.12981 11.9734 2.63334 10.7298 1.56713C9.48612 0.50092 7.88575 -0.056397 6.24884 0.00667612C4.61192 0.0697493 3.05919 0.748562 1.90127 1.90731C0.743353 3.06605 0.0656519 4.61928 0.00375008 6.25623C-0.0581517 7.89319 0.500311 9.49316 1.56741 10.736C2.63451 11.9789 4.13155 12.7731 5.75902 12.9596C7.38649 13.1461 9.02438 12.7112 10.345 11.742H10.344C10.374 11.782 10.406 11.82 10.442 11.857L14.292 15.707C14.4795 15.8946 14.7339 16.0001 14.9991 16.0002C15.2644 16.0003 15.5189 15.895 15.7065 15.7075C15.8941 15.52 15.9996 15.2656 15.9997 15.0004C15.9998 14.7351 15.8945 14.4806 15.707 14.293L11.857 10.443C11.8212 10.4068 11.7828 10.3734 11.742 10.343V10.344ZM12 6.5C12 7.22227 11.8577 7.93747 11.5813 8.60476C11.3049 9.27205 10.8998 9.87836 10.3891 10.3891C9.87837 10.8998 9.27205 11.3049 8.60476 11.5813C7.93747 11.8577 7.22227 12 6.5 12C5.77773 12 5.06253 11.8577 4.39524 11.5813C3.72795 11.3049 3.12164 10.8998 2.61091 10.3891C2.10019 9.87836 1.69506 9.27205 1.41866 8.60476C1.14226 7.93747 1 7.22227 1 6.5C1 5.04131 1.57946 3.64236 2.61091 2.61091C3.64236 1.57946 5.04131 1 6.5 1C7.95869 1 9.35764 1.57946 10.3891 2.61091C11.4205 3.64236 12 5.04131 12 6.5V6.5Z" fill="#F8F8F8"/>
</g>
<defs>
<clipPath id="clip0_3_2">
<rect width="16" height="16" fill="white"/>
</clipPath>
</defs>
</svg>
