<svg id="shopping_cart_black_24dp" xmlns="http://www.w3.org/2000/svg" width="32" height="32" viewBox="0 0 32 32">
  <path id="Caminho_11" data-name="Caminho 11" d="M0,0H32V32H0Z" fill="none"/>
  <path id="Caminho_12" data-name="Caminho 12" d="M20.4,16.667a2.654,2.654,0,0,0,2.333-1.373L27.507,6.64a1.328,1.328,0,0,0-1.16-1.973H6.613L5.36,2H1V4.667H3.667l4.8,10.12-1.8,3.253A2.671,2.671,0,0,0,9,22H25V19.333H9l1.467-2.667ZM7.88,7.333h16.2L20.4,14H11.04Zm1.12,16A2.667,2.667,0,1,0,11.667,26,2.663,2.663,0,0,0,9,23.333Zm13.333,0A2.667,2.667,0,1,0,25,26,2.663,2.663,0,0,0,22.333,23.333Z" transform="translate(0.333 0.667)" fill="#00aeef"/>
</svg>
